<svg xmlns="http://www.w3.org/2000/svg" viewBox="0 0 512 512" width="100%" heigth="100%"><ellipse fill="#999" cx="256.18" cy="428.995" rx="202.6" ry="33.14"/><path fill="#F7A419" d="M344.035 102.665 291.37 50l-52.666 52.665-61.548 61.549 52.666 52.665 61.548-61.548 52.665 52.665 52.666-52.665z"/><path fill="#EE4E22" d="m292.002 278.377 52.666 52.665 52.665-52.665 61.207-61.207-52.665-52.665-61.207 61.206-52.666-52.665-52.665 52.665zM220.699 226.002l-52.666-52.665-52.665 52.665L53.82 287.55l52.665 52.666 61.548-61.549 52.666 52.666 52.665-52.666z"/><path fill="#F7A419" d="m168.666 401.713 52.665 52.666 52.666-52.666 61.206-61.206-52.665-52.666-61.207 61.207-52.665-52.666L116 349.048z"/></svg>